<mxfile host="app.diagrams.net" modified="2023-11-08T07:04:24.990Z" agent="Mozilla/5.0 (Windows NT 10.0; WOW64) AppleWebKit/537.36 (KHTML, like Gecko) Chrome/102.0.0.0 Safari/537.36" etag="CJUmtZ7S7LpiDzmkkEZV" version="22.0.8" type="device">
  <diagram name="Страница — 1" id="13RZrCRx2wQUqH-u4mGi">
    <mxGraphModel dx="880" dy="395" grid="1" gridSize="10" guides="1" tooltips="1" connect="1" arrows="1" fold="1" page="1" pageScale="1" pageWidth="827" pageHeight="1169" math="0" shadow="0">
      <root>
        <mxCell id="0" />
        <mxCell id="1" parent="0" />
        <mxCell id="nKxALwGNiV-pz5F4P7ic-3" style="edgeStyle=orthogonalEdgeStyle;rounded=0;orthogonalLoop=1;jettySize=auto;html=1;exitX=0.5;exitY=1;exitDx=0;exitDy=0;entryX=0.5;entryY=0;entryDx=0;entryDy=0;" edge="1" parent="1" source="nKxALwGNiV-pz5F4P7ic-1" target="nKxALwGNiV-pz5F4P7ic-2">
          <mxGeometry relative="1" as="geometry" />
        </mxCell>
        <mxCell id="nKxALwGNiV-pz5F4P7ic-4" value="Цифры и математические операторы" style="edgeLabel;html=1;align=center;verticalAlign=middle;resizable=0;points=[];" vertex="1" connectable="0" parent="nKxALwGNiV-pz5F4P7ic-3">
          <mxGeometry x="-0.08" relative="1" as="geometry">
            <mxPoint as="offset" />
          </mxGeometry>
        </mxCell>
        <mxCell id="nKxALwGNiV-pz5F4P7ic-1" value="Входные данные" style="rounded=0;whiteSpace=wrap;html=1;" vertex="1" parent="1">
          <mxGeometry x="340" y="30" width="120" height="30" as="geometry" />
        </mxCell>
        <mxCell id="nKxALwGNiV-pz5F4P7ic-2" value="Проверка валидности ввода" style="rounded=0;whiteSpace=wrap;html=1;" vertex="1" parent="1">
          <mxGeometry x="340" y="110" width="120" height="40" as="geometry" />
        </mxCell>
        <mxCell id="nKxALwGNiV-pz5F4P7ic-5" value="Выбор операции" style="rounded=0;whiteSpace=wrap;html=1;" vertex="1" parent="1">
          <mxGeometry x="190" y="180" width="120" height="30" as="geometry" />
        </mxCell>
        <mxCell id="nKxALwGNiV-pz5F4P7ic-7" value="" style="endArrow=classic;html=1;rounded=0;exitX=0;exitY=1;exitDx=0;exitDy=0;entryX=0.75;entryY=0;entryDx=0;entryDy=0;" edge="1" parent="1" source="nKxALwGNiV-pz5F4P7ic-2" target="nKxALwGNiV-pz5F4P7ic-5">
          <mxGeometry width="50" height="50" relative="1" as="geometry">
            <mxPoint x="110" y="300" as="sourcePoint" />
            <mxPoint x="160" y="250" as="targetPoint" />
          </mxGeometry>
        </mxCell>
        <mxCell id="nKxALwGNiV-pz5F4P7ic-8" value="Ввод верен" style="text;html=1;strokeColor=none;fillColor=none;align=center;verticalAlign=middle;whiteSpace=wrap;rounded=0;" vertex="1" parent="1">
          <mxGeometry x="250" y="130" width="60" height="30" as="geometry" />
        </mxCell>
        <mxCell id="nKxALwGNiV-pz5F4P7ic-9" value="" style="endArrow=classic;html=1;rounded=0;exitX=0.5;exitY=1;exitDx=0;exitDy=0;" edge="1" parent="1" source="nKxALwGNiV-pz5F4P7ic-5">
          <mxGeometry width="50" height="50" relative="1" as="geometry">
            <mxPoint x="220" y="290" as="sourcePoint" />
            <mxPoint x="250" y="250" as="targetPoint" />
          </mxGeometry>
        </mxCell>
        <mxCell id="nKxALwGNiV-pz5F4P7ic-15" style="edgeStyle=orthogonalEdgeStyle;rounded=0;orthogonalLoop=1;jettySize=auto;html=1;exitX=1;exitY=0.5;exitDx=0;exitDy=0;entryX=0.5;entryY=0;entryDx=0;entryDy=0;" edge="1" parent="1" source="nKxALwGNiV-pz5F4P7ic-10" target="nKxALwGNiV-pz5F4P7ic-14">
          <mxGeometry relative="1" as="geometry" />
        </mxCell>
        <mxCell id="nKxALwGNiV-pz5F4P7ic-16" value="Нет" style="edgeLabel;html=1;align=center;verticalAlign=middle;resizable=0;points=[];" vertex="1" connectable="0" parent="nKxALwGNiV-pz5F4P7ic-15">
          <mxGeometry x="-0.2" relative="1" as="geometry">
            <mxPoint as="offset" />
          </mxGeometry>
        </mxCell>
        <mxCell id="nKxALwGNiV-pz5F4P7ic-10" value="Возможна операция?" style="rhombus;whiteSpace=wrap;html=1;" vertex="1" parent="1">
          <mxGeometry x="205" y="250" width="90" height="80" as="geometry" />
        </mxCell>
        <mxCell id="nKxALwGNiV-pz5F4P7ic-18" style="edgeStyle=orthogonalEdgeStyle;rounded=0;orthogonalLoop=1;jettySize=auto;html=1;exitX=0.5;exitY=1;exitDx=0;exitDy=0;entryX=0.5;entryY=0;entryDx=0;entryDy=0;" edge="1" parent="1" source="nKxALwGNiV-pz5F4P7ic-11" target="nKxALwGNiV-pz5F4P7ic-17">
          <mxGeometry relative="1" as="geometry" />
        </mxCell>
        <mxCell id="nKxALwGNiV-pz5F4P7ic-11" value="Выполнение операции" style="rounded=0;whiteSpace=wrap;html=1;" vertex="1" parent="1">
          <mxGeometry x="50" y="330" width="120" height="60" as="geometry" />
        </mxCell>
        <mxCell id="nKxALwGNiV-pz5F4P7ic-12" style="edgeStyle=orthogonalEdgeStyle;rounded=0;orthogonalLoop=1;jettySize=auto;html=1;exitX=0;exitY=0.5;exitDx=0;exitDy=0;entryX=0.5;entryY=0;entryDx=0;entryDy=0;" edge="1" parent="1" source="nKxALwGNiV-pz5F4P7ic-10" target="nKxALwGNiV-pz5F4P7ic-11">
          <mxGeometry relative="1" as="geometry" />
        </mxCell>
        <mxCell id="nKxALwGNiV-pz5F4P7ic-13" value="Да" style="edgeLabel;html=1;align=center;verticalAlign=middle;resizable=0;points=[];" vertex="1" connectable="0" parent="nKxALwGNiV-pz5F4P7ic-12">
          <mxGeometry x="-0.1556" y="1" relative="1" as="geometry">
            <mxPoint as="offset" />
          </mxGeometry>
        </mxCell>
        <mxCell id="nKxALwGNiV-pz5F4P7ic-14" value="Вывод ошибки" style="rounded=0;whiteSpace=wrap;html=1;" vertex="1" parent="1">
          <mxGeometry x="300" y="330" width="120" height="60" as="geometry" />
        </mxCell>
        <mxCell id="nKxALwGNiV-pz5F4P7ic-17" value="Вывод результата" style="rounded=0;whiteSpace=wrap;html=1;" vertex="1" parent="1">
          <mxGeometry x="50" y="410" width="120" height="60" as="geometry" />
        </mxCell>
      </root>
    </mxGraphModel>
  </diagram>
</mxfile>
